<?xml version="1.0" standalone="no"?>
<!DOCTYPE svg PUBLIC "-//W3C//DTD SVG 20010904//EN"
 "http://www.w3.org/TR/2001/REC-SVG-20010904/DTD/svg10.dtd">
<svg version="1.0" xmlns="http://www.w3.org/2000/svg"
 width="700.000000pt" height="700.000000pt" viewBox="0 0 700.000000 700.000000"
 preserveAspectRatio="xMidYMid meet">
<metadata>
Created by potrace 1.11, written by Peter Selinger 2001-2013
</metadata>
<g transform="translate(0.000000,700.000000) scale(0.100000,-0.100000)"
fill="#000000" stroke="none">
<path d="M1732 6959 c-123 -80 -265 -273 -317 -429 -41 -124 -54 -214 -50
-340 5 -169 46 -311 127 -442 24 -38 50 -80 58 -94 8 -13 202 -317 430 -674
228 -357 422 -662 431 -677 9 -16 82 -131 163 -256 80 -125 146 -233 146 -239
0 -9 -174 -286 -375 -598 -34 -52 -81 -126 -106 -164 -24 -38 -47 -73 -50 -79
-4 -6 -17 0 -30 13 -41 39 -158 111 -223 137 -120 48 -197 61 -350 58 -77 -1
-154 -5 -171 -9 -142 -32 -227 -62 -346 -121 -402 -199 -738 -570 -924 -1020
-31 -75 -71 -189 -81 -230 -29 -121 -38 -166 -49 -250 -8 -60 -12 -155 -10
-235 4 -136 6 -160 19 -215 3 -16 8 -39 10 -51 11 -59 51 -168 87 -238 127
-250 347 -409 624 -452 44 -7 203 -6 260 1 189 25 417 117 600 244 141 97 295
237 395 361 25 30 47 57 50 60 18 17 167 247 557 860 244 382 447 702 453 710
18 27 105 164 161 252 29 49 57 88 60 88 3 0 70 -102 149 -227 79 -126 172
-271 206 -323 34 -52 162 -252 284 -445 373 -586 502 -788 539 -840 292 -414
717 -695 1121 -741 89 -10 251 -4 302 12 9 3 25 7 35 9 45 9 141 48 192 77
436 245 575 865 336 1502 -130 347 -347 651 -637 893 -97 80 -274 187 -395
237 -67 28 -214 72 -272 82 -80 14 -298 13 -362 -2 -145 -33 -281 -99 -366
-178 -18 -16 -34 -28 -35 -25 -2 2 -7 12 -13 21 -20 33 -399 624 -446 695 -26
39 -55 85 -64 102 -18 35 -18 34 53 144 20 32 228 357 462 724 234 367 485
759 557 872 205 317 245 408 268 596 39 316 -117 677 -367 846 l-57 39 -26
-38 c-14 -20 -45 -66 -67 -102 -70 -111 -110 -172 -160 -248 -26 -40 -48 -75
-48 -77 0 -3 -16 -28 -35 -55 -19 -27 -35 -52 -35 -55 0 -2 -19 -33 -42 -67
-23 -35 -51 -79 -64 -98 -12 -19 -50 -80 -86 -135 -35 -55 -91 -143 -123 -195
-33 -52 -64 -99 -68 -105 -5 -5 -53 -80 -107 -165 -126 -198 -299 -469 -405
-635 -46 -71 -114 -178 -151 -237 -38 -60 -71 -108 -74 -108 -3 1 -111 167
-240 371 -129 203 -272 426 -317 497 -98 152 -228 357 -263 412 -40 63 -175
274 -265 415 -46 72 -116 182 -156 245 -40 63 -77 117 -81 118 -4 2 -8 8 -8
12 0 5 -35 63 -78 129 l-78 121 -62 -41z m1643 -3045 c20 -9 51 -35 70 -57
118 -138 29 -342 -152 -353 -69 -4 -129 22 -175 75 -125 147 -13 368 179 355
24 -2 59 -11 78 -20z m-1678 -1411 c49 -24 84 -85 110 -193 2 -8 5 -55 6 -105
16 -461 -354 -1013 -783 -1170 -101 -37 -208 -40 -261 -8 -68 43 -112 169
-112 323 0 327 205 730 493 971 201 167 425 242 547 182z m3348 13 c374 -84
762 -547 845 -1006 13 -67 17 -236 7 -280 -36 -174 -94 -231 -225 -224 -298
16 -670 353 -837 759 -137 332 -109 702 57 752 31 9 110 9 153 -1z"/>
</g>
</svg>
